# xmcd
#
# Track frame offsets:
#  150
#  13164
#  23596
#  33673
#  46696
#  59556
#  69418
#  82876
#  94463
#  108464
#  121123
#  133489
#  143179
#  152681
#  165569
#  174881
#  185753
#  197754
#  212726
#  221145
#  233509
#  245526
#  257022
#  267291
#  285722
#
# Disc length: 3989 seconds
#
# Revision: 3
# Processed by: cddbd v1.5.1PL0 Copyright (c) Steve Scherf et al.
# Submitted via: Collectorz.com_Music_Collector 6.9
#
DISCID=6b0f9319
DTITLE=Various Artist - The Story Of Vee-Jay [CD1]
DYEAR=2002
DGENRE=Blues -  Blues Soul - Doo Wop - Gospel - Soul
TTITLE0=El Dorados - Bim Bam Boom
TTITLE1=Gene Chandler - Duke Of Earl
TTITLE2=Betty Everett - The Shoop Shoop Song (It's In His Kiss)
TTITLE3=The Dells - Oh What A Night
TTITLE4=Priscilla Bowman - Jay McShann - Hands Off
TTITLE5=John Lee Hooker - Dimples
TTITLE6=Eddie Taylor - Big Town Playboy
TTITLE7=Pee Wee Crayton - I Found My Peace Of Mind
TTITLE8=The Harmonizing Four - Wade In The Water
TTITLE9=Swan Silvertones - Oh Mary Don't You Weep
TTITLE10=Jerry Butler - The Impressions - For Your Precious Love
TTITLE11=Gene Allison - You Can Make It If You Try
TTITLE12=Rosco Gordon - Just A Little Bit
TTITLE13=Dee Clark - Raindrops
TTITLE14=Gladys Knight and The Pips - Every Beat Of My Heart
TTITLE15=Joe Simon - My Adorable One
TTITLE16=Jimmy Reed - Bright Lights, Big City
TTITLE17=Elmore James - It Hurts Me Too
TTITLE18=The Original Blind Boys Of Alabama - I'm Journeying On
TTITLE19=The Argo Singers - Jesus Is The Answer
TTITLE20=The Magnificients - Up On The Mountain
TTITLE21=The Spaniels - Baby It's You
TTITLE22=Betty Everett - You're No Good
TTITLE23=Little Richard - I Don't Know What You Got But It's Got Me
TTITLE24=The Staple Singers - Uncloudy Day
EXTD=
EXTT0=
EXTT1=
EXTT2=
EXTT3=
EXTT4=
EXTT5=
EXTT6=
EXTT7=
EXTT8=
EXTT9=
EXTT10=
EXTT11=
EXTT12=
EXTT13=
EXTT14=
EXTT15=
EXTT16=
EXTT17=
EXTT18=
EXTT19=
EXTT20=
EXTT21=
EXTT22=
EXTT23=
EXTT24=
PLAYORDER=
